<svg xmlns="http://www.w3.org/2000/svg" viewBox="0 0 364.41 377.03"><defs><style>.cls-1{fill:#1c4590;}.cls-1,.cls-2{stroke:#0083ad;stroke-miterlimit:10;stroke-width:0.14px;}.cls-2{fill:none;}.cls-3{fill:#d1d3d4;}</style></defs><title>Asset 2</title><g id="Layer_2" data-name="Layer 2"><g id="Layer_1-2" data-name="Layer 1"><path class="cls-1" d="M272.22,238.41a28,28,0,0,0-4.19-8.89c-.18-.25-.34-.52-.52-.77a27.85,27.85,0,0,0-8.36-7.38,28.17,28.17,0,0,0-4.86-2.21L254,219l-.5-.14a32.17,32.17,0,0,1-5.46-2.51,32.8,32.8,0,0,1-2.9-1.91,31.84,31.84,0,0,1-13.08-26,32.45,32.45,0,0,1,.29-4.45,32.13,32.13,0,0,1,12.52-21.2l.27-.18a32.07,32.07,0,0,1,8.89-4.6v0a27.74,27.74,0,0,0,14.07-10.56c.44-.63.87-1.26,1.25-1.93a28.08,28.08,0,0,0-48.57-28.21c-.41.71-.78,1.43-1.12,2.16a27.8,27.8,0,0,0-2.26,16.69c.06.27.14.53.19.79s.15.83.21,1.25A32.14,32.14,0,0,1,173.45,173l-.24-.12a32.06,32.06,0,0,1-8.16-5.13l-.26-.25-.12-.11a28.15,28.15,0,0,0-15.05-6.76c-.32,0-.64,0-1-.07a28.07,28.07,0,1,0,14.43,50.35c.59-.45,1.14-.93,1.69-1.41h0c.63-.56,1.26-1.11,1.94-1.62a32.07,32.07,0,0,1,6.48-3.76,32.5,32.5,0,0,1,4.6-1.65,32.12,32.12,0,0,1,24.41,3.21h0a32.14,32.14,0,0,1,15,19.53,32.4,32.4,0,0,1,.87,4.8,32,32,0,0,1,0,7.49c-.1.84-.25,1.67-.42,2.49h0c-.15.72-.29,1.45-.38,2.19a28.06,28.06,0,1,0,55-3.8Zm-27.09,26.27a19,19,0,0,1-18.64-22.84h0c.22-1.05.4-2.11.54-3.19s.22-2.2.27-3.29a41,41,0,0,0-.9-10.54q-.21-1-.46-1.91a41.14,41.14,0,0,0-19.19-25h0a41.13,41.13,0,0,0-31.26-4.11q-.94.25-1.85.54a40.89,40.89,0,0,0-9.61,4.51c-.92.59-1.83,1.21-2.72,1.87s-1.69,1.35-2.49,2.06h0a19,19,0,1,1,0-28.46l0,0c.8.71,1.63,1.41,2.5,2.06s1.79,1.29,2.72,1.87a41,41,0,0,0,9.59,4.5c.62.2,1.24.38,1.87.55a41.12,41.12,0,0,0,31.26-4.12h0a41.12,41.12,0,0,0,19.19-25c.15-.57.29-1.15.42-1.72a41,41,0,0,0,.94-10.73c0-1.1-.13-2.2-.27-3.29s-.32-2.14-.54-3.19h0a19,19,0,1,1,24.65,14.22v0c-1,.34-2,.71-3,1.13s-2,.91-3,1.42a41,41,0,0,0-8.8,6.17c-.44.4-.87.82-1.3,1.24A41.12,41.12,0,0,0,223,188.5h0A41.12,41.12,0,0,0,235,217.63c.47.47,1,.93,1.44,1.37a40.88,40.88,0,0,0,8.66,6c1,.51,2,1,3,1.42s2,.79,3,1.13v0a19,19,0,0,1-6,37.06Z"/><circle class="cls-2" cx="245.13" cy="131.37" r="19.03"/><circle class="cls-2" cx="245.13" cy="245.66" r="19.02"/><path class="cls-2" d="M305.35,188.52a41.13,41.13,0,1,1-3.25-16A41,41,0,0,1,305.35,188.52Z"/><circle class="cls-2" cx="264.15" cy="188.52" r="19.02"/><line class="cls-2" x1="264.15" y1="188.52" x2="245.13" y2="131.37"/><line class="cls-2" x1="264.15" y1="188.52" x2="245.13" y2="245.66"/><line class="cls-2" x1="245.13" y1="245.66" x2="245.13" y2="131.37"/><circle class="cls-2" cx="146.15" cy="188.51" r="19.02" transform="translate(-74.68 98.34) rotate(-30)"/><path class="cls-2" d="M165.53,107.79a41.12,41.12,0,1,1-12.27,10.83A41,41,0,0,1,165.53,107.79Z"/><circle class="cls-2" cx="186.13" cy="143.46" r="19.03" transform="translate(-46.8 112.29) rotate(-30)"/><line class="cls-2" x1="186.13" y1="143.47" x2="146.15" y2="188.51"/><line class="cls-2" x1="186.13" y1="143.47" x2="245.13" y2="131.37"/><line class="cls-2" x1="245.13" y1="131.37" x2="146.15" y2="188.51"/><path class="cls-2" d="M165.53,269.24A41.14,41.14,0,1,1,181,274.45,41,41,0,0,1,165.53,269.24Z"/><path class="cls-2" d="M170,261.42a32.12,32.12,0,1,1,12.12,4.07A32.05,32.05,0,0,1,170,261.42Z"/><path class="cls-2" d="M132.11,212.83a28,28,0,1,1,10.58,3.55A28,28,0,0,1,132.11,212.83Z"/><path class="cls-2" d="M231.09,270a28,28,0,1,1,10.57,3.55A27.91,27.91,0,0,1,231.09,270Z"/><path class="cls-2" d="M238.47,207.91a32.12,32.12,0,1,1,9.56,8.49A32,32,0,0,1,238.47,207.91Z"/><path class="cls-2" d="M222.61,148.35a28,28,0,1,1,8.34,7.41A28,28,0,0,1,222.61,148.35Z"/><path class="cls-2" d="M215.67,156.05a32.09,32.09,0,1,1,2.59-12.52A32,32,0,0,1,215.67,156.05Z"/><circle class="cls-2" cx="186.13" cy="233.56" r="19.03" transform="translate(-109.21 277.97) rotate(-60)"/><line class="cls-2" x1="186.13" y1="233.56" x2="245.13" y2="245.66"/><line class="cls-2" x1="186.13" y1="233.56" x2="146.15" y2="188.52"/><line class="cls-2" x1="146.15" y1="188.52" x2="245.13" y2="245.66"/><line class="cls-2" x1="264.15" y1="188.52" x2="146.15" y2="188.52"/><line class="cls-2" x1="245.13" y1="131.37" x2="186.13" y2="233.56"/><line class="cls-2" x1="245.13" y1="245.66" x2="186.13" y2="143.47"/><path class="cls-3" d="M154.22,238.41a28,28,0,0,0-4.19-8.89c-.18-.25-.34-.52-.52-.77a27.85,27.85,0,0,0-8.36-7.38,28.17,28.17,0,0,0-4.86-2.21L136,219l-.5-.14a32.18,32.18,0,0,1-5.46-2.51,32.8,32.8,0,0,1-2.9-1.91,31.84,31.84,0,0,1-13.08-26,32.45,32.45,0,0,1,.29-4.45,32.14,32.14,0,0,1,12.52-21.2l.27-.18a32.07,32.07,0,0,1,8.89-4.6v0a27.74,27.74,0,0,0,14.07-10.56c.44-.63.87-1.26,1.25-1.93a28.08,28.08,0,0,0-48.57-28.21c-.41.71-.78,1.43-1.12,2.16a27.8,27.8,0,0,0-2.26,16.69c.06.27.14.53.19.79s.15.83.21,1.25A32.14,32.14,0,0,1,55.45,173l-.24-.12A32.06,32.06,0,0,1,47,167.75l-.26-.25-.12-.11a28.15,28.15,0,0,0-15.05-6.76c-.32,0-.64,0-1-.07a28.07,28.07,0,1,0,14.43,50.35c.59-.45,1.14-.93,1.69-1.41h0c.63-.56,1.26-1.11,1.94-1.62a32.07,32.07,0,0,1,6.48-3.76,32.51,32.51,0,0,1,4.6-1.65,32.12,32.12,0,0,1,24.41,3.21h0a32.14,32.14,0,0,1,15,19.53,32.4,32.4,0,0,1,.87,4.8,32,32,0,0,1,0,7.49c-.1.84-.25,1.67-.42,2.49h0c-.15.72-.29,1.45-.38,2.19a28.06,28.06,0,1,0,55-3.8Zm-27.09,26.27a19,19,0,0,1-18.64-22.84h0c.22-1.05.4-2.11.54-3.19s.22-2.2.27-3.29a41,41,0,0,0-.9-10.54q-.21-1-.46-1.91a41.14,41.14,0,0,0-19.19-25h0a41.13,41.13,0,0,0-31.26-4.11q-.94.25-1.85.54A40.89,40.89,0,0,0,46,198.81c-.92.59-1.83,1.21-2.72,1.87s-1.69,1.35-2.49,2.06h0a19,19,0,1,1,0-28.46l0,0c.8.71,1.63,1.41,2.5,2.06s1.79,1.29,2.72,1.87a41,41,0,0,0,9.59,4.5c.62.2,1.24.38,1.87.55a41.12,41.12,0,0,0,31.26-4.12h0a41.12,41.12,0,0,0,19.19-25c.15-.57.29-1.15.42-1.72a41,41,0,0,0,.94-10.73c0-1.1-.13-2.2-.27-3.29s-.32-2.14-.54-3.19h0a19,19,0,1,1,24.65,14.22v0c-1,.34-2,.71-3,1.13s-2,.91-3,1.42a41,41,0,0,0-8.8,6.17c-.44.4-.87.82-1.3,1.24A41.12,41.12,0,0,0,105,188.5h0A41.12,41.12,0,0,0,117,217.63c.47.47,1,.93,1.44,1.37a40.88,40.88,0,0,0,8.66,6c1,.51,2,1,3,1.42s2,.79,3,1.13v0a19,19,0,0,1-6,37.06Z"/><circle class="cls-2" cx="127.13" cy="131.37" r="19.03"/><circle class="cls-2" cx="127.13" cy="245.66" r="19.02"/><path class="cls-2" d="M187.35,188.52a41.13,41.13,0,1,1-3.25-16A41,41,0,0,1,187.35,188.52Z"/><circle class="cls-2" cx="146.16" cy="188.52" r="19.02"/><line class="cls-2" x1="146.16" y1="188.52" x2="127.13" y2="131.37"/><line class="cls-2" x1="146.16" y1="188.52" x2="127.13" y2="245.66"/><line class="cls-2" x1="127.13" y1="245.66" x2="127.13" y2="131.37"/><circle class="cls-2" cx="28.15" cy="188.51" r="19.02" transform="translate(-90.49 39.34) rotate(-30)"/><path class="cls-2" d="M47.53,107.79a41.12,41.12,0,1,1-12.27,10.83A41,41,0,0,1,47.53,107.79Z"/><circle class="cls-2" cx="68.13" cy="143.46" r="19.03" transform="translate(-62.61 53.29) rotate(-30)"/><line class="cls-2" x1="68.13" y1="143.47" x2="28.15" y2="188.51"/><line class="cls-2" x1="68.13" y1="143.47" x2="127.13" y2="131.37"/><line class="cls-2" x1="127.13" y1="131.37" x2="28.15" y2="188.51"/><path class="cls-2" d="M47.53,269.24A41.14,41.14,0,1,1,63,274.45,41,41,0,0,1,47.53,269.24Z"/><path class="cls-2" d="M52,261.42a32.12,32.12,0,1,1,12.12,4.07A32.05,32.05,0,0,1,52,261.42Z"/><path class="cls-2" d="M14.11,212.83a28,28,0,1,1,10.58,3.55A28,28,0,0,1,14.11,212.83Z"/><path class="cls-2" d="M113.09,270a28,28,0,1,1,10.57,3.55A27.91,27.91,0,0,1,113.09,270Z"/><path class="cls-2" d="M120.48,207.91a32.12,32.12,0,1,1,9.56,8.49A32,32,0,0,1,120.48,207.91Z"/><path class="cls-2" d="M104.61,148.35a28,28,0,1,1,8.34,7.41A28,28,0,0,1,104.61,148.35Z"/><path class="cls-2" d="M97.67,156.05a32.09,32.09,0,1,1,2.59-12.52A32,32,0,0,1,97.67,156.05Z"/><circle class="cls-2" cx="68.13" cy="233.56" r="19.03" transform="translate(-168.21 175.78) rotate(-60)"/><line class="cls-2" x1="68.13" y1="233.56" x2="127.13" y2="245.66"/><line class="cls-2" x1="68.13" y1="233.56" x2="28.15" y2="188.52"/><line class="cls-2" x1="28.15" y1="188.52" x2="127.13" y2="245.66"/><line class="cls-2" x1="146.16" y1="188.52" x2="28.15" y2="188.52"/><line class="cls-2" x1="127.13" y1="131.37" x2="68.13" y2="233.56"/><line class="cls-2" x1="127.13" y1="245.66" x2="68.13" y2="143.47"/><path class="cls-3" d="M331.21,340.6a28,28,0,0,0-4.19-8.89c-.18-.25-.34-.52-.52-.77a27.85,27.85,0,0,0-8.36-7.38,28.17,28.17,0,0,0-4.86-2.21l-.3-.11-.5-.14a32.16,32.16,0,0,1-5.46-2.51,32.8,32.8,0,0,1-2.9-1.91,31.84,31.84,0,0,1-13.08-26,32.45,32.45,0,0,1,.29-4.45,32.13,32.13,0,0,1,12.52-21.2l.27-.18a32.07,32.07,0,0,1,8.89-4.6v0a27.74,27.74,0,0,0,14.07-10.56c.44-.63.87-1.26,1.25-1.93a28.08,28.08,0,0,0-48.57-28.21c-.41.71-.78,1.43-1.12,2.16a27.8,27.8,0,0,0-2.26,16.69c.06.27.14.53.19.79s.15.83.21,1.25a32.14,32.14,0,0,1-44.35,34.75l-.24-.12a32.06,32.06,0,0,1-8.16-5.13l-.26-.25-.12-.11a28.15,28.15,0,0,0-15.05-6.76c-.32,0-.64,0-1-.07a28.07,28.07,0,1,0,14.43,50.35c.59-.45,1.14-.93,1.69-1.41h0c.63-.56,1.26-1.11,1.94-1.62a32.07,32.07,0,0,1,6.48-3.76,32.49,32.49,0,0,1,4.6-1.65,32.12,32.12,0,0,1,24.41,3.21h0a32.14,32.14,0,0,1,15,19.53,32.4,32.4,0,0,1,.87,4.8,32,32,0,0,1,0,7.49c-.1.84-.25,1.67-.42,2.49h0c-.15.72-.29,1.45-.38,2.19a28.06,28.06,0,1,0,55-3.8Zm-27.09,26.27A19,19,0,0,1,285.48,344h0c.22-1.05.4-2.11.54-3.19s.22-2.2.27-3.29a41,41,0,0,0-.9-10.54q-.21-1-.46-1.91a41.14,41.14,0,0,0-19.19-25h0A41.14,41.14,0,0,0,234.46,296q-.94.25-1.85.54A40.89,40.89,0,0,0,223,301c-.92.59-1.83,1.21-2.72,1.87s-1.69,1.35-2.49,2.06h0a19,19,0,1,1,0-28.46l0,0c.8.71,1.63,1.41,2.5,2.06s1.79,1.29,2.72,1.87a41,41,0,0,0,9.59,4.5c.62.2,1.24.38,1.87.55a41.12,41.12,0,0,0,31.26-4.12h0a41.12,41.12,0,0,0,19.19-25c.15-.57.29-1.15.42-1.72a41,41,0,0,0,.94-10.73c0-1.1-.13-2.2-.27-3.29s-.32-2.14-.54-3.19h0a19,19,0,1,1,24.65,14.22v0c-1,.34-2,.71-3,1.13s-2,.91-3,1.42a41,41,0,0,0-8.8,6.17c-.44.4-.87.82-1.3,1.24A41.12,41.12,0,0,0,282,290.7h0A41.12,41.12,0,0,0,294,319.83c.47.47,1,.93,1.44,1.37a40.88,40.88,0,0,0,8.66,6c1,.51,2,1,3,1.42s2,.79,3,1.13v0a19,19,0,0,1-6,37.06Z"/><circle class="cls-2" cx="304.13" cy="233.57" r="19.03"/><circle class="cls-2" cx="304.13" cy="347.86" r="19.02"/><path class="cls-2" d="M364.35,290.71a41.13,41.13,0,1,1-3.25-16A41,41,0,0,1,364.35,290.71Z"/><circle class="cls-2" cx="323.15" cy="290.71" r="19.02"/><line class="cls-2" x1="323.15" y1="290.71" x2="304.13" y2="233.57"/><line class="cls-2" x1="323.15" y1="290.71" x2="304.13" y2="347.86"/><line class="cls-2" x1="304.13" y1="347.86" x2="304.13" y2="233.57"/><circle class="cls-2" cx="205.15" cy="290.71" r="19.02" transform="translate(-117.88 141.54) rotate(-30)"/><path class="cls-2" d="M224.53,210a41.12,41.12,0,1,1-12.27,10.83A41,41,0,0,1,224.53,210Z"/><circle class="cls-2" cx="245.12" cy="245.66" r="19.03" transform="translate(-89.99 155.48) rotate(-30)"/><line class="cls-2" x1="245.12" y1="245.66" x2="205.15" y2="290.71"/><line class="cls-2" x1="245.12" y1="245.66" x2="304.13" y2="233.56"/><line class="cls-2" x1="304.13" y1="233.56" x2="205.15" y2="290.71"/><path class="cls-2" d="M224.53,371.44A41.14,41.14,0,1,1,240,376.65,41,41,0,0,1,224.53,371.44Z"/><path class="cls-2" d="M229,363.62a32.12,32.12,0,1,1,12.12,4.07A32.05,32.05,0,0,1,229,363.62Z"/><path class="cls-2" d="M191.11,315a28,28,0,1,1,10.58,3.55A28,28,0,0,1,191.11,315Z"/><path class="cls-2" d="M290.08,372.18a28,28,0,1,1,10.57,3.55A27.91,27.91,0,0,1,290.08,372.18Z"/><path class="cls-2" d="M297.47,310.11A32.12,32.12,0,1,1,307,318.6,32,32,0,0,1,297.47,310.11Z"/><path class="cls-2" d="M281.61,250.54a28,28,0,1,1,8.34,7.41A28,28,0,0,1,281.61,250.54Z"/><path class="cls-2" d="M274.66,258.25a32.09,32.09,0,1,1,2.59-12.52A32,32,0,0,1,274.66,258.25Z"/><circle class="cls-2" cx="245.12" cy="335.76" r="19.03" transform="translate(-168.22 380.16) rotate(-60)"/><line class="cls-2" x1="245.12" y1="335.76" x2="304.13" y2="347.86"/><line class="cls-2" x1="245.12" y1="335.76" x2="205.15" y2="290.71"/><line class="cls-2" x1="205.15" y1="290.71" x2="304.13" y2="347.86"/><line class="cls-2" x1="323.15" y1="290.71" x2="205.15" y2="290.71"/><line class="cls-2" x1="304.13" y1="233.56" x2="245.12" y2="335.76"/><line class="cls-2" x1="304.13" y1="347.86" x2="245.12" y2="245.66"/><path class="cls-3" d="M213.21,340.6a28,28,0,0,0-4.19-8.89c-.18-.25-.34-.52-.52-.77a27.85,27.85,0,0,0-8.36-7.38,28.17,28.17,0,0,0-4.86-2.21l-.3-.11-.5-.14a32.17,32.17,0,0,1-5.46-2.51,32.8,32.8,0,0,1-2.9-1.91,31.84,31.84,0,0,1-13.08-26,32.45,32.45,0,0,1,.29-4.45,32.14,32.14,0,0,1,12.52-21.2l.27-.18a32.06,32.06,0,0,1,8.89-4.6v0a27.74,27.74,0,0,0,14.07-10.56c.44-.63.87-1.26,1.25-1.93a28.08,28.08,0,0,0-48.57-28.21c-.41.71-.78,1.43-1.12,2.16a27.8,27.8,0,0,0-2.26,16.69c.06.27.14.53.19.79s.15.83.21,1.25a32.14,32.14,0,0,1-44.35,34.75l-.24-.12a32.06,32.06,0,0,1-8.16-5.13l-.26-.25-.12-.11a28.15,28.15,0,0,0-15.05-6.76c-.32,0-.64,0-1-.07a28.07,28.07,0,1,0,14.43,50.35c.59-.45,1.14-.93,1.69-1.41h0c.63-.56,1.26-1.11,1.94-1.62a32.07,32.07,0,0,1,6.48-3.76,32.48,32.48,0,0,1,4.6-1.65,32.12,32.12,0,0,1,24.41,3.21h0a32.14,32.14,0,0,1,15,19.53,32.42,32.42,0,0,1,.87,4.8,32,32,0,0,1,0,7.49c-.1.84-.25,1.67-.42,2.49h0c-.15.72-.29,1.45-.38,2.19a28.06,28.06,0,1,0,55-3.8Zm-27.09,26.27A19,19,0,0,1,167.48,344h0c.22-1.05.4-2.11.54-3.19s.22-2.2.27-3.29a41,41,0,0,0-.9-10.54q-.21-1-.46-1.91a41.14,41.14,0,0,0-19.19-25h0A41.14,41.14,0,0,0,116.46,296q-.94.25-1.85.54A40.89,40.89,0,0,0,105,301c-.92.59-1.83,1.21-2.72,1.87s-1.69,1.35-2.49,2.06h0a19,19,0,1,1,0-28.46l0,0c.8.71,1.63,1.41,2.5,2.06s1.79,1.29,2.72,1.87a41,41,0,0,0,9.59,4.5c.62.2,1.24.38,1.87.55a41.12,41.12,0,0,0,31.26-4.12h0a41.12,41.12,0,0,0,19.19-25c.15-.57.29-1.15.42-1.72a41,41,0,0,0,.94-10.73c0-1.1-.13-2.2-.27-3.29s-.32-2.14-.54-3.19h0a19,19,0,1,1,24.65,14.22v0c-1,.34-2,.71-3,1.13s-2,.91-3,1.42a41,41,0,0,0-8.81,6.17c-.44.4-.87.82-1.3,1.24A41.12,41.12,0,0,0,164,290.7h0A41.12,41.12,0,0,0,176,319.83c.47.47,1,.93,1.44,1.37a40.88,40.88,0,0,0,8.66,6c1,.51,2,1,3,1.42s2,.79,3,1.13v0a19,19,0,0,1-6,37.06Z"/><circle class="cls-2" cx="186.13" cy="233.57" r="19.03"/><circle class="cls-2" cx="186.13" cy="347.86" r="19.02"/><path class="cls-2" d="M246.35,290.71a41.13,41.13,0,1,1-3.25-16A41,41,0,0,1,246.35,290.71Z"/><circle class="cls-2" cx="205.15" cy="290.71" r="19.02"/><line class="cls-2" x1="205.15" y1="290.71" x2="186.13" y2="233.57"/><line class="cls-2" x1="205.15" y1="290.71" x2="186.13" y2="347.86"/><line class="cls-2" x1="186.13" y1="347.86" x2="186.13" y2="233.57"/><circle class="cls-2" cx="87.15" cy="290.71" r="19.02" transform="translate(-133.69 82.53) rotate(-30)"/><path class="cls-2" d="M106.53,210a41.12,41.12,0,1,1-12.27,10.83A41,41,0,0,1,106.53,210Z"/><circle class="cls-2" cx="127.13" cy="245.66" r="19.03" transform="translate(-105.8 96.48) rotate(-30)"/><line class="cls-2" x1="127.12" y1="245.66" x2="87.15" y2="290.71"/><line class="cls-2" x1="127.13" y1="245.66" x2="186.13" y2="233.56"/><line class="cls-2" x1="186.13" y1="233.56" x2="87.15" y2="290.71"/><path class="cls-2" d="M106.53,371.44A41.14,41.14,0,1,1,122,376.65,41,41,0,0,1,106.53,371.44Z"/><path class="cls-2" d="M111,363.62a32.12,32.12,0,1,1,12.12,4.07A32.05,32.05,0,0,1,111,363.62Z"/><path class="cls-2" d="M73.11,315a28,28,0,1,1,10.58,3.55A28,28,0,0,1,73.11,315Z"/><path class="cls-2" d="M172.08,372.18a28,28,0,1,1,10.57,3.55A27.91,27.91,0,0,1,172.08,372.18Z"/><path class="cls-2" d="M179.47,310.11A32.12,32.12,0,1,1,189,318.6,32,32,0,0,1,179.47,310.11Z"/><path class="cls-2" d="M163.61,250.54A28,28,0,1,1,172,258,28,28,0,0,1,163.61,250.54Z"/><path class="cls-2" d="M156.67,258.25a32.09,32.09,0,1,1,2.59-12.52A32,32,0,0,1,156.67,258.25Z"/><circle class="cls-2" cx="127.12" cy="335.76" r="19.03" transform="translate(-227.21 277.97) rotate(-60)"/><line class="cls-2" x1="127.12" y1="335.76" x2="186.13" y2="347.86"/><line class="cls-2" x1="127.12" y1="335.76" x2="87.15" y2="290.71"/><line class="cls-2" x1="87.15" y1="290.71" x2="186.13" y2="347.86"/><line class="cls-2" x1="205.15" y1="290.71" x2="87.15" y2="290.71"/><line class="cls-2" x1="186.13" y1="233.56" x2="127.12" y2="335.76"/><line class="cls-2" x1="186.13" y1="347.86" x2="127.13" y2="245.66"/><path class="cls-3" d="M331.21,136.21a28,28,0,0,0-4.19-8.89c-.18-.25-.34-.52-.52-.77a27.85,27.85,0,0,0-8.36-7.38,28.16,28.16,0,0,0-4.86-2.21l-.3-.11-.5-.14A32.17,32.17,0,0,1,307,114.2a32.8,32.8,0,0,1-2.9-1.91,31.84,31.84,0,0,1-13.08-26,32.45,32.45,0,0,1,.29-4.45,32.13,32.13,0,0,1,12.52-21.2l.27-.18a32.06,32.06,0,0,1,8.89-4.6v0A27.74,27.74,0,0,0,327.08,45.3c.44-.63.87-1.26,1.25-1.93a28.08,28.08,0,0,0-48.57-28.21c-.41.71-.78,1.43-1.12,2.16A27.8,27.8,0,0,0,276.39,34c.06.27.14.53.19.79s.15.83.21,1.25A32.14,32.14,0,0,1,232.44,70.8l-.24-.12A32.06,32.06,0,0,1,224,65.55l-.26-.25-.12-.11a28.15,28.15,0,0,0-15.05-6.76c-.32,0-.64,0-1-.07a28.07,28.07,0,1,0,14.43,50.35c.59-.45,1.14-.93,1.69-1.41h0c.63-.56,1.26-1.11,1.94-1.62a32.07,32.07,0,0,1,6.48-3.76,32.5,32.5,0,0,1,4.6-1.65,32.12,32.12,0,0,1,24.41,3.21h0a32.14,32.14,0,0,1,15,19.53,32.41,32.41,0,0,1,.87,4.8,32,32,0,0,1,0,7.49c-.1.84-.25,1.67-.42,2.49h0c-.15.72-.29,1.45-.38,2.19a28.06,28.06,0,1,0,55-3.8Zm-27.09,26.27a19,19,0,0,1-18.64-22.84h0c.22-1.05.4-2.11.54-3.19s.22-2.2.27-3.29a41,41,0,0,0-.9-10.54q-.21-1-.46-1.91a41.14,41.14,0,0,0-19.19-25h0a41.13,41.13,0,0,0-31.26-4.11q-.94.25-1.85.54A40.9,40.9,0,0,0,223,96.61c-.92.59-1.83,1.21-2.72,1.87s-1.69,1.35-2.49,2.06h0a19,19,0,1,1,0-28.46l0,0c.8.71,1.63,1.41,2.5,2.06S222.07,75.41,223,76a41,41,0,0,0,9.59,4.5c.62.2,1.24.38,1.87.55a41.12,41.12,0,0,0,31.26-4.12h0a41.12,41.12,0,0,0,19.19-25c.15-.57.29-1.15.42-1.72a41,41,0,0,0,.94-10.73c0-1.1-.13-2.2-.27-3.29s-.32-2.14-.54-3.19h0A19,19,0,1,1,310.13,47.2v0c-1,.34-2,.71-3,1.13s-2,.91-3,1.42a40.94,40.94,0,0,0-8.8,6.17c-.44.4-.87.82-1.3,1.24A41.12,41.12,0,0,0,282,86.31h0A41.12,41.12,0,0,0,294,115.44c.47.47,1,.93,1.44,1.37a40.88,40.88,0,0,0,8.66,6c1,.51,2,1,3,1.42s2,.79,3,1.13v0a19,19,0,0,1-6,37.06Z"/><circle class="cls-2" cx="304.13" cy="29.17" r="19.03"/><circle class="cls-2" cx="304.13" cy="143.46" r="19.02"/><path class="cls-2" d="M364.35,86.32a41.13,41.13,0,1,1-3.25-16A41,41,0,0,1,364.35,86.32Z"/><circle class="cls-2" cx="323.15" cy="86.32" r="19.02"/><line class="cls-2" x1="323.15" y1="86.32" x2="304.13" y2="29.17"/><line class="cls-2" x1="323.15" y1="86.32" x2="304.13" y2="143.46"/><line class="cls-2" x1="304.13" y1="143.46" x2="304.13" y2="29.17"/><circle class="cls-2" cx="205.15" cy="86.32" r="19.02" transform="translate(-15.67 114.15) rotate(-30)"/><path class="cls-2" d="M224.53,5.59a41.19,41.19,0,1,1,41.2,71.35,41.2,41.2,0,0,1-53.47-60.52A41,41,0,0,1,224.53,5.59Z"/><circle class="cls-2" cx="245.12" cy="41.27" r="19.03" transform="translate(12.21 128.1) rotate(-30)"/><line class="cls-2" x1="245.12" y1="41.27" x2="205.15" y2="86.32"/><line class="cls-2" x1="245.12" y1="41.27" x2="304.13" y2="29.17"/><line class="cls-2" x1="304.13" y1="29.17" x2="205.15" y2="86.32"/><path class="cls-2" d="M224.53,167A41.14,41.14,0,1,1,240,172.25,41,41,0,0,1,224.53,167Z"/><path class="cls-2" d="M229,159.23a32.12,32.12,0,1,1,12.12,4.07A32.05,32.05,0,0,1,229,159.23Z"/><path class="cls-2" d="M191.11,110.64a28,28,0,1,1,10.58,3.55A28,28,0,0,1,191.11,110.64Z"/><path class="cls-2" d="M290.08,167.78a28,28,0,1,1,10.57,3.55A27.91,27.91,0,0,1,290.08,167.78Z"/><path class="cls-2" d="M297.47,105.72a32.12,32.12,0,1,1,9.56,8.49A32,32,0,0,1,297.47,105.72Z"/><path class="cls-2" d="M281.61,46.15a28,28,0,1,1,8.34,7.41A28,28,0,0,1,281.61,46.15Z"/><path class="cls-2" d="M274.66,53.85a32.09,32.09,0,1,1,2.59-12.52A32,32,0,0,1,274.66,53.85Z"/><circle class="cls-2" cx="245.12" cy="131.37" r="19.03" transform="translate(8.79 277.97) rotate(-60)"/><line class="cls-2" x1="245.12" y1="131.37" x2="304.13" y2="143.46"/><line class="cls-2" x1="245.12" y1="131.37" x2="205.15" y2="86.32"/><line class="cls-2" x1="205.15" y1="86.32" x2="304.13" y2="143.46"/><line class="cls-2" x1="323.15" y1="86.32" x2="205.15" y2="86.32"/><line class="cls-2" x1="304.13" y1="29.17" x2="245.12" y2="131.37"/><line class="cls-2" x1="304.13" y1="143.46" x2="245.12" y2="41.27"/><path class="cls-3" d="M213.22,136.21a28,28,0,0,0-4.19-8.89c-.18-.25-.34-.52-.52-.77a27.85,27.85,0,0,0-8.36-7.38,28.16,28.16,0,0,0-4.86-2.21l-.3-.11-.5-.14A32.17,32.17,0,0,1,189,114.2a32.8,32.8,0,0,1-2.9-1.91,31.84,31.84,0,0,1-13.08-26,32.47,32.47,0,0,1,.29-4.45,32.14,32.14,0,0,1,12.52-21.2l.27-.18a32.07,32.07,0,0,1,8.89-4.6v0A27.74,27.74,0,0,0,209.08,45.3c.44-.63.87-1.26,1.25-1.93a28.08,28.08,0,0,0-48.57-28.21c-.41.71-.78,1.43-1.12,2.16A27.8,27.8,0,0,0,158.39,34c.06.27.14.53.19.79s.15.83.21,1.25A32.14,32.14,0,0,1,114.45,70.8l-.24-.12A32.06,32.06,0,0,1,106,65.55l-.26-.25-.12-.11a28.15,28.15,0,0,0-15.05-6.76c-.32,0-.64,0-1-.07a28.07,28.07,0,1,0,14.43,50.35c.59-.45,1.14-.93,1.69-1.41h0c.63-.56,1.26-1.11,1.94-1.62a32.07,32.07,0,0,1,6.48-3.76,32.5,32.5,0,0,1,4.6-1.65,32.12,32.12,0,0,1,24.41,3.21h0a32.14,32.14,0,0,1,15,19.53,32.41,32.41,0,0,1,.87,4.8,32,32,0,0,1,0,7.49c-.1.84-.25,1.67-.42,2.49h0c-.15.72-.29,1.45-.38,2.19a28.06,28.06,0,1,0,55-3.8Zm-27.09,26.27a19,19,0,0,1-18.64-22.84h0c.22-1.05.4-2.11.54-3.19s.22-2.2.27-3.29a41,41,0,0,0-.9-10.54q-.21-1-.46-1.91a41.14,41.14,0,0,0-19.19-25h0a41.13,41.13,0,0,0-31.26-4.11q-.94.25-1.85.54A40.9,40.9,0,0,0,105,96.61c-.92.59-1.83,1.21-2.72,1.87s-1.69,1.35-2.49,2.06h0a19,19,0,1,1,0-28.46l0,0c.8.71,1.63,1.41,2.5,2.06S104.07,75.41,105,76a41,41,0,0,0,9.59,4.5c.62.2,1.24.38,1.87.55a41.12,41.12,0,0,0,31.26-4.12h0a41.12,41.12,0,0,0,19.19-25c.15-.57.29-1.15.42-1.72a41,41,0,0,0,.94-10.73c0-1.1-.13-2.2-.27-3.29s-.32-2.14-.54-3.19h0A19,19,0,1,1,192.13,47.2v0c-1,.34-2,.71-3,1.13s-2,.91-3,1.42a41,41,0,0,0-8.8,6.17c-.44.4-.87.82-1.3,1.24A41.12,41.12,0,0,0,164,86.31h0A41.12,41.12,0,0,0,176,115.44c.47.47,1,.93,1.44,1.37a40.88,40.88,0,0,0,8.66,6c1,.51,2,1,3,1.42s2,.79,3,1.13v0a19,19,0,0,1-6,37.06Z"/><circle class="cls-2" cx="186.13" cy="29.17" r="19.03"/><circle class="cls-2" cx="186.13" cy="143.46" r="19.02"/><path class="cls-2" d="M246.35,86.32a41.13,41.13,0,1,1-3.25-16A41,41,0,0,1,246.35,86.32Z"/><circle class="cls-2" cx="205.15" cy="86.32" r="19.02"/><line class="cls-2" x1="205.15" y1="86.32" x2="186.13" y2="29.17"/><line class="cls-2" x1="205.15" y1="86.32" x2="186.13" y2="143.46"/><line class="cls-2" x1="186.13" y1="143.46" x2="186.13" y2="29.17"/><circle class="cls-2" cx="87.15" cy="86.32" r="19.02" transform="translate(-31.48 55.14) rotate(-30)"/><path class="cls-2" d="M106.53,5.59a41.19,41.19,0,1,1,41.2,71.35A41.2,41.2,0,0,1,94.26,16.43,41,41,0,0,1,106.53,5.59Z"/><circle class="cls-2" cx="127.13" cy="41.27" r="19.03" transform="translate(-3.6 69.1) rotate(-30)"/><line class="cls-2" x1="127.13" y1="41.27" x2="87.15" y2="86.32"/><line class="cls-2" x1="127.13" y1="41.27" x2="186.13" y2="29.17"/><line class="cls-2" x1="186.13" y1="29.17" x2="87.15" y2="86.32"/><path class="cls-2" d="M106.53,167A41.14,41.14,0,1,1,122,172.25,41,41,0,0,1,106.53,167Z"/><path class="cls-2" d="M111,159.23a32.12,32.12,0,1,1,12.12,4.07A32.05,32.05,0,0,1,111,159.23Z"/><path class="cls-2" d="M73.11,110.64a28,28,0,1,1,10.58,3.55A28,28,0,0,1,73.11,110.64Z"/><path class="cls-2" d="M172.09,167.78a28,28,0,1,1,10.57,3.55A27.91,27.91,0,0,1,172.09,167.78Z"/><path class="cls-2" d="M179.47,105.72a32.12,32.12,0,1,1,9.56,8.49A32,32,0,0,1,179.47,105.72Z"/><path class="cls-2" d="M163.61,46.15A28.05,28.05,0,1,1,172,53.56,28,28,0,0,1,163.61,46.15Z"/><path class="cls-2" d="M156.67,53.85a32.09,32.09,0,1,1,2.59-12.52A32,32,0,0,1,156.67,53.85Z"/><circle class="cls-2" cx="127.13" cy="131.37" r="19.03" transform="translate(-50.21 175.78) rotate(-60)"/><line class="cls-2" x1="127.13" y1="131.37" x2="186.13" y2="143.46"/><line class="cls-2" x1="127.13" y1="131.37" x2="87.15" y2="86.32"/><line class="cls-2" x1="87.15" y1="86.32" x2="186.13" y2="143.46"/><line class="cls-2" x1="205.15" y1="86.32" x2="87.15" y2="86.32"/><line class="cls-2" x1="186.13" y1="29.17" x2="127.13" y2="131.37"/><line class="cls-2" x1="186.13" y1="143.46" x2="127.13" y2="41.27"/></g></g></svg>